# xmcd
# 
# Track frame offsets:
#     182
#     12822
#     24205
#     36215
#     49800
#     63200
#     73280
#     86312
#     100390
#     114045
#     126855
#     141565
#     152800
#     167722
# 
# Disc length: 2386
# 
# Revision: 2
# Processed by: cddbd v1.5.2PL0 Copyright (c) Steve Scherf et al.
# Submitted via: fre:ac v1.1beta1pre3
# 
DISCID=b409500e
DTITLE=Bo Diddley and Muddy Watters - Série Dois Astros - Bo Diddley and Muddy Waters
DYEAR=0
DGENRE=Blues
TTITLE0=Hoochie Coochie Man
TTITLE1=WHo do You Love
TTITLE2=I Just want to make love to you
TTITLE3=I'm a Man
TTITLE4=Mannish Boy
TTITLE5=Hey Bo Diddley
TTITLE6=GOt My Mojo Working
TTITLE7=Before you accuse me
TTITLE8=Rollin' Stone
TTITLE9=Road Runner
TTITLE10=Good Morning Little Scholl Girl
TTITLE11=Bo Diddley
TTITLE12=Baby please don't go
TTITLE13=Bring it to Jerome
EXTD=
EXTT0=
EXTT1=
EXTT2=
EXTT3=
EXTT4=
EXTT5=
EXTT6=
EXTT7=
EXTT8=
EXTT9=
EXTT10=
EXTT11=
EXTT12=
EXTT13=
PLAYORDER=
